<svg t="1680861040515" class="icon" viewBox="0 0 1024 1024" version="1.1" xmlns="http://www.w3.org/2000/svg" p-id="1029" width="100" height="100"><path d="M512 903.92c-6.61 0-12.83-2.58-17.51-7.25L166.1 568.68c-46.18-46.17-71.61-107.79-71.61-173.51 0-65.71 25.43-127.33 71.59-173.49s107.78-71.59 173.49-71.59c65.2 0 126.36 25.03 172.41 70.52 46.05-45.49 107.22-70.52 172.41-70.52 65.71 0 127.33 25.43 173.49 71.59s71.59 107.78 71.59 173.49-25.43 127.33-71.59 173.49L529.5 896.68c-4.69 4.67-10.9 7.24-17.5 7.24z" fill="#2D3647" p-id="1030"></path><path d="M684.4 162.58c62.37 0 120.85 24.12 164.65 67.93 43.81 43.81 67.93 102.29 67.93 164.66 0 62.38-24.12 120.84-67.93 164.65L520.67 887.84c-2.4 2.39-5.53 3.58-8.67 3.58-3.14 0-6.27-1.2-8.67-3.59l-328.4-327.99c-43.82-43.81-67.94-102.29-67.94-164.66s24.12-120.85 67.93-164.66 102.29-67.93 164.65-67.93c62.37 0 120.85 24.12 164.65 67.93l7.76 7.76 7.76-7.76c43.82-43.82 102.29-67.94 164.66-67.94m0-25c-64.44 0-125.15 23.28-172.41 65.84-47.26-42.56-107.97-65.84-172.41-65.84-69.05 0-133.8 26.73-182.33 75.26S81.99 326.12 81.99 395.17c0 69.06 26.73 133.82 75.27 182.34l328.41 328c7.03 7.03 16.39 10.9 26.34 10.9 9.93 0 19.27-3.86 26.31-10.87L866.73 577.5C915.27 528.96 942 464.21 942 395.16s-26.73-133.8-75.26-182.33c-48.54-48.52-113.29-75.25-182.34-75.25z" fill="#E04B87" p-id="1031"></path><path d="M852.96 557.62H606.8c-1.08 0-2.12 0.15-3.12 0.42-3.69 0.67-7.04 3-8.83 6.6l-19.46 39.25-80.16-218.03c-1.4-3.8-4.51-6.48-8.13-7.53-6.02-2.23-12.87 0.6-15.49 6.55l-64.28 145.86H156.08c-6.75 0-12.27 5.52-12.27 12.27s5.52 12.27 12.27 12.27h259.83c0.06 0 0.11-0.01 0.16-0.01 4.82 0.11 9.49-2.64 11.55-7.31l55.09-125.02 79.42 216.01c2.33 6.34 9.42 9.61 15.75 7.28 1.96-0.72 3.62-1.9 4.92-3.37 0.86-0.89 1.6-1.91 2.18-3.07l28.58-57.63h239.4c6.75 0 12.27-5.52 12.27-12.27 0.01-6.74-5.52-12.27-12.27-12.27z" fill="#EDBFAB" p-id="1032"></path></svg>